<svg width="20" height="20" viewBox="0 0 20 20" fill="none" xmlns="http://www.w3.org/2000/svg">
<path d="M9.99992 9.25003C9.80101 9.25003 9.61024 9.32904 9.46959 9.4697C9.32894 9.61035 9.24992 9.80111 9.24992 10C9.24992 10.1989 9.32894 10.3897 9.46959 10.5304C9.61024 10.671 9.80101 10.75 9.99992 10.75C10.1988 10.75 10.3896 10.671 10.5302 10.5304C10.6709 10.3897 10.7499 10.1989 10.7499 10C10.7499 9.80111 10.6709 9.61035 10.5302 9.4697C10.3896 9.32904 10.1988 9.25003 9.99992 9.25003ZM6.99992 9.25003C6.80101 9.25003 6.61024 9.32904 6.46959 9.4697C6.32894 9.61035 6.24992 9.80111 6.24992 10C6.24992 10.1989 6.32894 10.3897 6.46959 10.5304C6.61024 10.671 6.80101 10.75 6.99992 10.75C7.19883 10.75 7.3896 10.671 7.53025 10.5304C7.6709 10.3897 7.74992 10.1989 7.74992 10C7.74992 9.80111 7.6709 9.61035 7.53025 9.4697C7.3896 9.32904 7.19883 9.25003 6.99992 9.25003ZM12.9999 9.25003C12.801 9.25003 12.6102 9.32904 12.4696 9.4697C12.3289 9.61035 12.2499 9.80111 12.2499 10C12.2499 10.1989 12.3289 10.3897 12.4696 10.5304C12.6102 10.671 12.801 10.75 12.9999 10.75C13.1988 10.75 13.3896 10.671 13.5302 10.5304C13.6709 10.3897 13.7499 10.1989 13.7499 10C13.7499 9.80111 13.6709 9.61035 13.5302 9.4697C13.3896 9.32904 13.1988 9.25003 12.9999 9.25003ZM17.4149 3.29003C13.7099 -0.804975 7.38492 -1.11997 3.28992 2.58403C-0.805082 6.28903 -1.12008 12.614 2.58392 16.709L0.145918 19.146C0.0758113 19.216 0.0280469 19.3051 0.0086801 19.4022C-0.0106867 19.4993 -0.000783604 19.6 0.0371339 19.6915C0.0750515 19.783 0.139276 19.8611 0.221665 19.916C0.304054 19.971 0.400898 20.0002 0.499918 20H9.99992C12.4794 19.9999 14.8704 19.0786 16.7089 17.415C20.8049 13.71 21.1209 7.38503 17.4149 3.29003ZM9.99992 19H1.70692L3.63592 17.071C3.72965 16.9773 3.78231 16.8501 3.78231 16.7175C3.78231 16.5849 3.72965 16.4578 3.63592 16.364C2.37755 15.1056 1.52058 13.5022 1.17336 11.7567C0.826142 10.0113 1.00427 8.20204 1.68521 6.55779C2.36616 4.91354 3.51935 3.50811 4.99898 2.51921C6.47861 1.5303 8.21824 1.00232 9.99792 1.00203C12.3846 1.00176 14.6736 1.94961 16.3615 3.63706C18.0493 5.32452 18.9977 7.61334 18.9979 10C18.9982 12.3867 18.0503 14.6757 16.3629 16.3636C14.6754 18.0514 12.3866 18.9998 9.99992 19Z" fill="black"/>
</svg>
