<svg width="110" height="110" viewBox="0 0 110 110" fill="none" xmlns="http://www.w3.org/2000/svg">
<path d="M110 55C110 69.5869 104.205 83.5764 93.8909 93.8909C83.5764 104.205 69.5869 110 55 110C40.4131 110 26.4236 104.205 16.1091 93.8909C5.79463 83.5764 0 69.5869 0 55C0 40.4131 5.79463 26.4236 16.1091 16.1091C26.4236 5.79463 40.4131 0 55 0C69.5869 0 83.5764 5.79463 93.8909 16.1091C104.205 26.4236 110 40.4131 110 55ZM27.5 55C27.5 55.9117 27.8622 56.786 28.5068 57.4307C29.1515 58.0753 30.0258 58.4375 30.9375 58.4375H51.5625V79.0625C51.5625 79.9742 51.9247 80.8485 52.5693 81.4932C53.214 82.1378 54.0883 82.5 55 82.5C55.9117 82.5 56.786 82.1378 57.4307 81.4932C58.0753 80.8485 58.4375 79.9742 58.4375 79.0625V58.4375H79.0625C79.9742 58.4375 80.8485 58.0753 81.4932 57.4307C82.1378 56.786 82.5 55.9117 82.5 55C82.5 54.0883 82.1378 53.214 81.4932 52.5693C80.8485 51.9247 79.9742 51.5625 79.0625 51.5625H58.4375V30.9375C58.4375 30.0258 58.0753 29.1515 57.4307 28.5068C56.786 27.8622 55.9117 27.5 55 27.5C54.0883 27.5 53.214 27.8622 52.5693 28.5068C51.9247 29.1515 51.5625 30.0258 51.5625 30.9375V51.5625H30.9375C30.0258 51.5625 29.1515 51.9247 28.5068 52.5693C27.8622 53.214 27.5 54.0883 27.5 55Z" fill="#FC6666"/>
</svg>
