<svg width="216" height="192" viewBox="0 0 216 192" fill="none" xmlns="http://www.w3.org/2000/svg">
<path d="M216 60C216 90.6 198.3 122 163.4 153.4C147.552 167.647 130.297 180.245 111.9 191C110.705 191.657 109.364 192.001 108 192.001C106.636 192.001 105.295 191.657 104.1 191C99.8 188.6 0 131.9 0 60C0 47.4071 3.96224 35.1333 11.3255 24.9174C18.6887 14.7014 29.0796 7.06124 41.0263 3.079C52.9731 -0.903237 65.8699 -1.02562 77.8901 2.72919C89.9102 6.484 100.444 13.9256 108 24C115.556 13.9256 126.09 6.484 138.11 2.72919C150.13 -1.02562 163.027 -0.903237 174.974 3.079C186.92 7.06124 197.311 14.7014 204.675 24.9174C212.038 35.1333 216 47.4071 216 60Z" fill="#FC6666"/>
</svg>
