<svg width="27" height="24" viewBox="0 0 27 24" fill="none" xmlns="http://www.w3.org/2000/svg">
<path d="M13.4992 22.7387C13.0309 22.7387 12.5839 22.5902 12.2061 22.3092C9.64125 20.4057 3.51111 15.6709 1.97325 12.8025C-0.0381985 9.05391 1.16974 4.23959 4.66051 2.07103C5.78863 1.37115 7.06574 1 8.36414 1C10.3064 1 12.1316 1.79532 13.4992 3.21098C14.8668 1.79532 16.692 1 18.6342 1C19.9326 1 21.2098 1.37115 22.3379 2.07103C25.8286 4.23959 27.0366 9.05391 25.0305 12.8025C23.4926 15.6709 17.3625 20.4057 14.7976 22.3092C14.4145 22.5902 13.9675 22.7387 13.4992 22.7387ZM8.36414 2.59063C7.36373 2.59063 6.37929 2.87695 5.5066 3.41776C2.71291 5.15686 1.75508 9.0274 3.37808 12.0496C4.80419 14.7113 11.2217 19.5998 13.1533 21.0314C13.3555 21.1798 13.6375 21.1798 13.8398 21.0314C15.7714 19.5945 22.1889 14.706 23.615 12.0496C25.238 9.0274 24.2801 5.15156 21.4865 3.41776C20.6191 2.87695 19.6347 2.59063 18.6342 2.59063C16.8835 2.59063 15.2446 3.43897 14.1377 4.91296L13.4992 5.7719L12.8606 4.91296C11.7538 3.43897 10.1202 2.59063 8.36414 2.59063Z" fill="black" stroke="black" stroke-width="0.7"/>
</svg>
