<svg width="701" height="70" viewBox="0 0 701 70" fill="none" xmlns="http://www.w3.org/2000/svg">
<path d="M0.2 2H39.8V17.15H17.6V27.35H38.05V42.5H17.6V68H0.2V2ZM49.0258 2H66.4258V68H49.0258V2ZM87.9625 17.15H73.0625V2H120.263V17.15H105.363V68H87.9625V17.15ZM190.973 51.95C193.607 51.95 196.09 51.55 198.423 50.75C200.757 49.95 202.54 49.15 203.773 48.35L211.173 63.1C209.607 64.4333 206.907 65.7833 203.073 67.15C199.273 68.5167 194.773 69.2 189.573 69.2C184.707 69.2 180.123 68.35 175.823 66.65C171.523 64.95 167.707 62.5667 164.373 59.5C161.073 56.4333 158.49 52.8333 156.623 48.7C154.757 44.5333 153.823 40 153.823 35.1C153.823 30.2 154.757 25.6667 156.623 21.5C158.49 17.3 161.073 13.6667 164.373 10.6C167.673 7.5 171.473 5.1 175.773 3.4C180.107 1.66666 184.707 0.799995 189.573 0.799995C194.773 0.799995 199.273 1.48333 203.073 2.85C206.907 4.21666 209.607 5.56666 211.173 6.9L203.773 21.65C202.54 20.85 200.757 20.05 198.423 19.25C196.09 18.45 193.607 18.05 190.973 18.05C187.707 18.05 184.907 18.5333 182.573 19.5C180.273 20.4667 178.39 21.7667 176.923 23.4C175.457 25.0333 174.373 26.85 173.673 28.85C173.007 30.85 172.673 32.8833 172.673 34.95C172.673 37.05 173.007 39.1167 173.673 41.15C174.373 43.15 175.457 44.9667 176.923 46.6C178.39 48.2333 180.273 49.5333 182.573 50.5C184.907 51.4667 187.707 51.95 190.973 51.95ZM256.615 42.5H237.215V68H219.815V2H237.215V27.35H256.615V2H273.915V68H256.615V42.5ZM306.366 2H323.466L350.166 68H331.616L327.116 55.75H302.766L298.266 68H279.616L306.366 2ZM308.566 40.6H321.316L315.016 22.9H314.866L308.566 40.6ZM355.278 2H372.678V52.85H395.878V68H355.278V2ZM405.571 2H422.971V52.85H446.171V68H405.571V2ZM455.264 2H498.614V17.15H472.664V27.6H498.514V42.25H472.664V52.85H498.614V68H455.264V2ZM525.173 17.85L526.473 18.1V68H509.073V2H532.673L556.523 51.8L555.273 52.05V2H572.623V68H548.923L525.173 17.85ZM615.446 30.7H649.196V35.1C649.196 39.9 648.413 44.3667 646.846 48.5C645.279 52.6 643.013 56.2167 640.046 59.35C637.113 62.45 633.596 64.8667 629.496 66.6C625.396 68.3333 620.829 69.2 615.796 69.2C610.563 69.2 605.846 68.3333 601.646 66.6C597.446 64.8333 593.829 62.4 590.796 59.3C587.796 56.1667 585.479 52.5333 583.846 48.4C582.246 44.2333 581.446 39.75 581.446 34.95C581.446 30.1833 582.246 25.7333 583.846 21.6C585.479 17.4333 587.796 13.8 590.796 10.7C593.829 7.56667 597.446 5.13333 601.646 3.4C605.846 1.66666 610.563 0.799995 615.796 0.799995C620.296 0.799995 624.229 1.3 627.596 2.3C630.963 3.26666 633.813 4.53333 636.146 6.1C638.513 7.66666 640.479 9.38333 642.046 11.25C643.613 13.0833 644.879 14.8333 645.846 16.5L629.196 24.15C628.096 22.3167 626.513 20.6667 624.446 19.2C622.379 17.7333 619.496 17 615.796 17C613.363 17 611.146 17.4833 609.146 18.45C607.179 19.3833 605.479 20.6833 604.046 22.35C602.613 23.9833 601.513 25.8833 600.746 28.05C599.979 30.2167 599.596 32.5167 599.596 34.95C599.596 37.4167 599.979 39.7333 600.746 41.9C601.513 44.0667 602.613 45.9833 604.046 47.65C605.479 49.2833 607.179 50.5667 609.146 51.5C611.146 52.4333 613.363 52.9 615.796 52.9C617.796 52.9 619.613 52.7 621.246 52.3C622.879 51.9 624.279 51.3 625.446 50.5C626.613 49.7 627.546 48.75 628.246 47.65C628.946 46.5167 629.379 45.25 629.546 43.85H615.446V30.7ZM657.217 2H700.567V17.15H674.617V27.6H700.467V42.25H674.617V52.85H700.567V68H657.217V2Z" fill="#FC6666"/>
</svg>
