<svg width="362" height="125" viewBox="0 0 362 125" fill="none" xmlns="http://www.w3.org/2000/svg">
<path d="M123 77L171.5 77V78C171.5 86.2843 164.784 93 156.5 93H138C129.716 93 123 86.2843 123 78V77Z" fill="#FC6666"/>
<rect x="44" width="18" height="125" fill="#FC6666"/>
<rect x="301" width="18" height="125" fill="#FC6666"/>
<rect x="273" y="29" width="18" height="66" fill="#FC6666"/>
<rect x="139" y="71" width="68" height="18" transform="rotate(-180 139 71)" fill="#FC6666"/>
<rect x="291" y="71" width="68" height="18" transform="rotate(-180 291 71)" fill="#FC6666"/>
<path d="M239.5 48L191 48V47C191 38.7157 197.716 32 206 32H224.5C232.784 32 239.5 38.7157 239.5 47V48Z" fill="#FC6666"/>
<path d="M273 29L291 17.7417V40.2583L273 29Z" fill="#FC6666"/>
<path d="M273 95L291 83.7417V106.258L273 95Z" fill="#FC6666"/>
<rect x="16" y="29" width="18" height="66" fill="#FC6666"/>
<path d="M16 29L34 17.7417V40.2583L16 29Z" fill="#FC6666"/>
<path d="M16 95L34 83.7417V106.258L16 95Z" fill="#FC6666"/>
<rect x="89" y="95" width="18" height="66" transform="rotate(-180 89 95)" fill="#FC6666"/>
<path d="M89 95L71 106.258V83.7417L89 95Z" fill="#FC6666"/>
<path d="M89 29L71 40.2583V17.7417L89 29Z" fill="#FC6666"/>
<rect x="347" y="95" width="18" height="66" transform="rotate(-180 347 95)" fill="#FC6666"/>
<path d="M347 95L329 106.258V83.7417L347 95Z" fill="#FC6666"/>
<path d="M347 29L329 40.2583V17.7417L347 29Z" fill="#FC6666"/>
<path d="M18 53H0V53C0 62.9411 8.05887 71 18 71V71L18 53Z" fill="#FC6666"/>
<path d="M18 53H0V53C0 62.9411 8.05887 71 18 71V71L18 53Z" fill="#FC6666"/>
<path d="M18 53H0V53C0 62.9411 8.05887 71 18 71V71L18 53Z" fill="#FC6666"/>
<path d="M344 53H362V53C362 62.9411 353.941 71 344 71V71V53Z" fill="#FC6666"/>
<path d="M344 53H362V53C362 62.9411 353.941 71 344 71V71V53Z" fill="#FC6666"/>
<path d="M344 53H362V53C362 62.9411 353.941 71 344 71V71V53Z" fill="#FC6666"/>
<path d="M171.5 48L123 48V47C123 38.7157 129.716 32 138 32H156.5C164.784 32 171.5 38.7157 171.5 47V48Z" fill="#FC6666"/>
<rect x="123" y="46" width="16" height="18" fill="#FC6666"/>
<path d="M191 77L239.5 77V78C239.5 86.2843 232.784 93 224.5 93H206C197.716 93 191 86.2843 191 78V77Z" fill="#FC6666"/>
<rect x="239.5" y="79" width="16" height="18" transform="rotate(-180 239.5 79)" fill="#FC6666"/>
<rect x="223" y="60" width="16" height="18" fill="#FC6666"/>
<path d="M202.631 86.0502C199.897 88.7839 195.465 88.7839 192.732 86.0503L151.719 45.0381L158.933 37.8243C161.667 35.0906 166.099 35.0906 168.833 37.8243L209.845 78.8365L202.631 86.0502Z" fill="#FC6666"/>
<path d="M209.845 46L168.833 87.0122C166.099 89.7459 161.667 89.7459 158.933 87.0122L151.72 79.7984L192.732 38.7862C195.465 36.0526 199.898 36.0526 202.631 38.7862L209.845 46Z" fill="#FC6666"/>
<rect x="167.83" y="39.985" width="5" height="2.31202" rx="1.15601" transform="rotate(-140 167.83 39.985)" fill="#FC6666"/>
<rect x="199.071" y="38.2028" width="5.5" height="3.82817" rx="1.43185" transform="rotate(138 199.071 38.2028)" fill="#FC6666"/>
<rect x="169.412" y="86.5034" width="5.39824" height="2.02385" rx="1.01193" transform="rotate(137.5 169.412 86.5034)" fill="#FC6666"/>
<rect x="196.113" y="89.3223" width="5.65681" height="1.96622" rx="0.983109" transform="rotate(-135.5 196.113 89.3223)" fill="#FC6666"/>
</svg>
