<svg width="28" height="30" viewBox="0 0 28 30" fill="none" xmlns="http://www.w3.org/2000/svg">
<path d="M27.9159 27.7796L18.8264 18.0633C20.2369 16.1141 20.9999 13.7308 20.9999 11.2241C20.9999 8.22352 19.9044 5.41001 17.9234 3.28866C15.9424 1.16731 13.3034 0 10.5 0C7.69647 0 5.05748 1.17105 3.07649 3.28866C1.092 5.40627 0 8.22352 0 11.2241C0 14.2209 1.0955 17.0419 3.07649 19.1595C5.05748 21.2809 7.69297 22.4482 10.5 22.4482C12.8449 22.4482 15.0709 21.6326 16.8944 20.1285L25.9839 29.8411C26.0105 29.8696 26.0422 29.8922 26.077 29.9077C26.1118 29.9231 26.1492 29.931 26.1869 29.931C26.2246 29.931 26.2619 29.9231 26.2968 29.9077C26.3316 29.8922 26.3632 29.8696 26.3899 29.8411L27.9159 28.2136C27.9425 28.1851 27.9637 28.1513 27.9781 28.1141C27.9926 28.0768 28 28.0369 28 27.9966C28 27.9563 27.9926 27.9164 27.9781 27.8792C27.9637 27.8419 27.9425 27.8081 27.9159 27.7796ZM16.0439 17.1504C14.5599 18.733 12.5929 19.6047 10.5 19.6047C8.40696 19.6047 6.43997 18.733 4.95598 17.1504C3.47548 15.5641 2.65999 13.4614 2.65999 11.2241C2.65999 8.98675 3.47548 6.88037 4.95598 5.29777C6.43997 3.71517 8.40696 2.84344 10.5 2.84344C12.5929 2.84344 14.5634 3.71143 16.0439 5.29777C17.5244 6.88411 18.3399 8.98675 18.3399 11.2241C18.3399 13.4614 17.5244 15.5678 16.0439 17.1504Z" fill="#626262"/>
</svg>
